<svg width="152" height="152" fill="none" xmlns="http://www.w3.org/2000/svg"><path d="M0 0h152v151.434s-44.037-17.691-76.71-7.076C42.617 154.972 0 151.434 0 151.434V0z" fill="#F5453D"/><path d="M45.976 132.357c-12.45 3.297-12.082 11.063-20.643 10.386-12.444-.983-11.131-13.419-20.406-24.602.86-9.017 15.978-13.921 25.035-13.056 15.473-3.158 28.464 23.976 16.014 27.272z" fill="#F65D55"/><path fill-rule="evenodd" clip-rule="evenodd" d="M45.445 0L0 6.234V24.49c21.284 22.41 57.952 62.73 68.351 84.982 14.927 31.936 65.535 20.996 65.535 20.996L115.99 0H45.445z" fill="#F54F47"/></svg>