<svg width="101" height="103" fill="none" xmlns="http://www.w3.org/2000/svg"><g clip-path="url(#clip0_101_244)" filter="url(#filter0_d_101_244)"><mask id="a" fill="#fff"><path d="M56.315 54.919l9.257-34.547c.372-1.39 1.9-2.206 3.223-1.642 16.695 7.1 25.895 25.81 20.41 43.81-5.634 18.486-25.797 29.48-44.399 24.245a35.893 35.893 0 01-17.974-11.687c-.932-1.124-.554-2.837.71-3.567l28.773-16.613z"/></mask><path d="M56.315 54.919l9.257-34.547c.372-1.39 1.9-2.206 3.223-1.642 16.695 7.1 25.895 25.81 20.41 43.81-5.634 18.486-25.797 29.48-44.399 24.245a35.893 35.893 0 01-17.974-11.687c-.932-1.124-.554-2.837.71-3.567l28.773-16.613z" fill="url(#paint0_linear_101_244)" fill-opacity=".9"/><path d="M56.315 54.919l1.59.426-.176.66-.59.34-.824-1.426zm12.48-36.19l-.644 1.516h-.001l.645-1.515zm20.41 43.812l1.575.48-1.576-.48zm-44.4 24.245l.447-1.585-.447 1.585zM26.832 75.099l1.267-1.051-1.268 1.051zm.71-3.567l.824 1.426-.824-1.426zm27.182-17.04l9.257-34.546 3.181.852-9.257 34.547-3.181-.852zm9.257-34.546c.61-2.28 3.141-3.72 5.46-2.732l-1.291 3.03a.652.652 0 00-.567.037.83.83 0 00-.42.517l-3.182-.852zm5.459-2.732C86.892 24.638 96.515 44.2 90.78 63.021l-3.151-.96c5.234-17.178-3.544-35.038-19.478-41.816l1.289-3.03zm21.34 45.807c-5.896 19.345-26.958 30.828-46.42 25.35l.893-3.17c17.741 4.993 37.004-5.513 42.376-23.14l3.15.96zm-46.42 25.35A37.54 37.54 0 0125.564 76.15l2.535-2.102a34.247 34.247 0 0017.153 11.153l-.892 3.17zm-18.796-12.22c-1.639-1.977-.916-4.85 1.155-6.045l1.647 2.852c-.459.265-.492.819-.267 1.09l-2.535 2.102zm1.155-6.045L55.49 53.493l1.647 2.852-28.772 16.613-1.647-2.852z" fill="url(#paint1_linear_101_244)" fill-opacity=".4" mask="url(#a)"/><path d="M11.742 43.303L46.29 52.56 17.117 69.402c-1.115.644-2.581.328-3.257-.766-4.212-6.818-6.17-15.012-5.152-23.361.174-1.43 1.644-2.345 3.034-1.972z" fill="url(#paint2_linear_101_244)" fill-opacity=".9"/><path d="M14.56 68.203c.425.687 1.387.924 2.145.486L44.156 52.84 11.53 44.098c-.945-.253-1.895.383-2.004 1.276h0c-.994 8.157.918 16.164 5.035 22.829zm0 0l-.7.433.7-.433z" stroke="url(#paint3_linear_101_244)" stroke-opacity=".4" stroke-width="1.647"/><path d="M16.918 34.251c5.86-17.07 23.482-27.245 41.196-23.784 1.352.264 2.17 1.683 1.814 3.014l-8.73 32.577-32.578-8.73c-1.33-.356-2.15-1.774-1.702-3.077z" fill="url(#paint4_linear_101_244)" fill-opacity=".9"/><path d="M17.697 34.519h0c-.281.819.232 1.772 1.136 2.014l31.784 8.517 8.516-31.782c.242-.905-.328-1.827-1.177-1.993h0c-17.31-3.382-34.532 6.562-40.259 23.244zm-.779-.268c5.86-17.07 23.482-27.245 41.196-23.784L16.918 34.25z" stroke="url(#paint5_linear_101_244)" stroke-opacity=".4" stroke-width="1.647"/><path d="M34.322 35.074l4.302-2.4-.53-.95-2.734 1.524-.024-.042.468-1.704c.567-1.851.586-2.61.19-3.317-.586-1.051-1.87-1.343-3.133-.639-1.243.695-1.695 1.96-1.03 3.151l1.082-.603c-.358-.64-.177-1.268.448-1.617.597-.333 1.245-.216 1.575.375.293.524.182 1.075-.086 2.05l-.987 3.35.459.822zm7.588-4.122c1.327-.74 1.75-2.158 1.054-3.405-.674-1.208-1.999-1.61-3.139-.973-.509.284-.846.737-.925 1.143l-.037.02-.748-1.764 2.7-1.507-.53-.95-3.64 2.032 1.477 3.419 1.121-.405c.081-.35.393-.73.771-.937.691-.381 1.472-.15 1.865.563.395.7.19 1.47-.482 1.844-.566.317-1.223.213-1.55-.28l-1.103.616c.612 1.025 1.94 1.267 3.166.584zm5.93-4.965c.41.728 1.22 1.091 2.08.611.859-.479.984-1.364.573-2.092l-.184-.33c-.407-.738-1.21-1.097-2.081-.612-.849.474-.977 1.361-.573 2.092l.185.331zm-5.194-1.811c.41.727 1.216 1.085 2.08.603.855-.477.987-1.35.574-2.084l-.185-.33c-.407-.738-1.21-1.097-2.078-.613-.846.471-.983 1.356-.576 2.093l.185.33zm2.937 4.614l.769-.43.812-8.682-.769.429-.813 8.683zm2.872-3.58c-.178-.327-.223-.732.163-.947.404-.226.707.035.885.362l.185.331c.184.323.232.718-.16.937-.393.22-.706-.032-.888-.352l-.185-.331zm-5.188-1.815c-.176-.323-.23-.728.16-.945.404-.226.704.037.882.364l.185.33c.184.324.235.717-.157.936-.393.22-.7-.03-.885-.354l-.185-.33z" fill="#fff" fill-opacity=".8"/></g><defs><linearGradient id="paint0_linear_101_244" x1="67.085" y1="-12.761" x2="35.24" y2="106.083" gradientUnits="userSpaceOnUse"><stop stop-color="#F53B3B"/><stop offset="1" stop-color="#FB6544"/></linearGradient><linearGradient id="paint1_linear_101_244" x1="60.562" y1="11.117" x2="40.588" y2="85.659" gradientUnits="userSpaceOnUse"><stop stop-color="#E74544"/><stop offset="1" stop-color="#fff" stop-opacity=".14"/></linearGradient><linearGradient id="paint2_linear_101_244" x1="45.934" y1="29.561" x2="34.897" y2="106.318" gradientUnits="userSpaceOnUse"><stop stop-color="#1256BC"/><stop offset="1" stop-color="#44F0FB"/></linearGradient><linearGradient id="paint3_linear_101_244" x1="60.218" y1="11.352" x2="40.245" y2="85.893" gradientUnits="userSpaceOnUse"><stop stop-color="#E74544"/><stop offset="1" stop-color="#fff" stop-opacity=".14"/></linearGradient><linearGradient id="paint4_linear_101_244" x1="67.085" y1="-12.761" x2="35.24" y2="106.083" gradientUnits="userSpaceOnUse"><stop stop-color="#F5AB3B"/><stop offset="1" stop-color="#FB6544"/></linearGradient><linearGradient id="paint5_linear_101_244" x1="60.561" y1="11.117" x2="40.588" y2="85.659" gradientUnits="userSpaceOnUse"><stop stop-color="#E74544"/><stop offset="1" stop-color="#fff" stop-opacity=".14"/></linearGradient><clipPath id="clip0_101_244"><path fill="#fff" transform="scale(-1 1) rotate(-15 32.437 391.267)" d="M0 0h81.995v77.172H0z"/></clipPath><filter id="filter0_d_101_244" x="-7.247" y="-1.141" width="115.644" height="112.233" filterUnits="userSpaceOnUse" color-interpolation-filters="sRGB"><feFlood flood-opacity="0" result="BackgroundImageFix"/><feColorMatrix in="SourceAlpha" values="0 0 0 0 0 0 0 0 0 0 0 0 0 0 0 0 0 0 127 0" result="hardAlpha"/><feOffset dy="6.588"/><feGaussianBlur stdDeviation="4.117"/><feColorMatrix values="0 0 0 0 0.334444 0 0 0 0 0.0410466 0 0 0 0 0.0238889 0 0 0 0.25 0"/><feBlend in2="BackgroundImageFix" result="effect1_dropShadow_101_244"/><feBlend in="SourceGraphic" in2="effect1_dropShadow_101_244" result="shape"/></filter></defs></svg>